<svg xmlns="http://www.w3.org/2000/svg" width="278.20131703072417" height="201.5625" viewBox="0 0 350 253.58210289208984">
              <defs id="SvgjsDefs2991"/>
              <g id="SvgjsG2992" transform="matrix(1.3903296058741426,0,0,1.3903296058741426,118.08015273195863,-6.992379016121171)" fill="#002c66">
                <path d="M 70.001021,60.908126 C 68.622608,58.188108 67.145285,55.569902 65.575601,53.061639 58.094083,64.673965 45.56836,75.064135 29.698243,81.525375 l 5.309266,13.040633 C 51.421671,87.88435 63.626862,75.463114 70.001021,60.908126 Z" stroke="none" fill="#002c66" fill-opacity="1"/>
                <path d="m 37.525865,76.809637 c 2.171217,-1.206804 4.270728,-2.478348 6.294108,-3.809591 C 29.857827,66.307862 16.936783,52.331384 9.3857867,33.784604 L -3.6539196,39.093492 C 4.151638,58.27083 19.793082,71.718464 37.525865,76.809637 Z" stroke="none" fill="#002c66" fill-opacity="1"/>
                <path d="M 58.448894,18.069925 53.13963,5.029296 c -18.678298,7.604542 -31.913477,22.643386 -37.293764,39.803947 1.305283,2.150557 2.682822,4.213393 4.114126,6.201433 6.947823,-13.397889 20.595079,-25.679595 38.488902,-32.964751 z" stroke="none" fill="#002c66" fill-opacity="1"/>
                <path d="M 86.252811,60.179111 C 79.002346,42.370497 64.998815,29.506309 48.838299,23.681081 c -2.333081,1.368798 -4.578063,2.810777 -6.728291,4.32107 12.665286,7.216938 24.154499,20.421334 31.10217,37.486225 l 13.040633,-5.309265 z" stroke="none" fill="#002c66" fill-opacity="1"/>
                <circle cx="43.209587" cy="51.021019" r="8.1112623" fill="#002c66" fill-opacity="1" fill-rule="nonzero" stroke="none"/>
              </g>
              <g id="SvgjsG2993" transform="matrix(5.713353078512462,0,0,5.713353078512462,-8.684298613619665,114.29055963279272)" fill="#002c66">
                <path d="M6.3 15.719999999999999 l-1.58 0 l0 4.28 q-0.64 0.12 -1.6 0.12 q-0.98 0 -1.6 -0.12 l0 -13.56 l0.14 -0.14 q1.74 -0.04 2.89 -0.06 t1.75 -0.02 q1.1 0 2.01 0.3 t1.55 0.9 t0.99 1.49 t0.35 2.05 t-0.36 2.05 t-1 1.49 t-1.55 0.91 t-1.99 0.31 z M4.72 8.66 l0 4.66 q0.56 -0.02 0.89 -0.03 t0.43 -0.01 q0.54 0 0.9 -0.19 t0.58 -0.5 t0.32 -0.73 t0.1 -0.88 q0 -0.44 -0.1 -0.86 t-0.31 -0.74 t-0.55 -0.51 t-0.8 -0.19 l-0.82 0 t-0.64 -0.02 z M16.88 17.72 l0.54 0 q0.24 0.66 0.24 1.32 t-0.06 0.86 q-1.2 0.2 -2.14 0.2 q-1.36 0 -1.93 -0.67 t-0.57 -2.11 l0 -11.9 l0.12 -0.14 l1.22 0 q0.94 0 1.32 0.42 t0.38 1.46 l0 9.62 q0 0.94 0.88 0.94 z M27.72 18.56 q-0.1 0.42 -0.38 0.9 t-0.58 0.7 q-1.4 -0.04 -2.16 -1.06 q-1.3 1.2 -2.82 1.2 q-0.78 0 -1.36 -0.25 t-0.98 -0.67 t-0.6 -0.97 t-0.2 -1.15 q0 -0.86 0.31 -1.51 t0.85 -1.08 t1.26 -0.65 t1.54 -0.22 q0.46 0 0.81 0.01 t0.61 0.03 l0 -0.38 q0 -1.26 -1.3 -1.26 q-0.84 0 -2.94 0.64 q-0.6 -0.7 -0.76 -2.18 q0.48 -0.18 1.07 -0.34 t1.21 -0.28 t1.22 -0.19 t1.08 -0.07 q0.7 0 1.35 0.2 t1.14 0.61 t0.78 1.06 t0.29 1.55 l0 4.06 q0 0.92 0.56 1.3 z M21.68 17.06 q0 0.94 1.08 0.94 q0.56 0 1.26 -0.58 l0 -1.6 q-0.4 -0.02 -0.67 -0.03 t-0.41 -0.01 q-1.26 0 -1.26 1.28 z M38.099999999999994 13.4 l0 4.1 q0 1.32 0.48 1.98 q-0.76 0.68 -1.82 0.68 q-1.04 0 -1.42 -0.48 t-0.38 -1.46 l0 -4.26 q0 -0.68 -0.18 -1 t-0.7 -0.32 q-0.3 0 -0.68 0.16 t-0.78 0.52 l0 6.68 q-0.34 0.06 -0.74 0.09 t-0.82 0.03 t-0.82 -0.03 t-0.74 -0.09 l0 -9.98 l0.14 -0.14 l1.18 0 q1.22 0 1.64 1.2 q1.4 -1.24 2.78 -1.24 q1.4 0 2.13 0.97 t0.73 2.59 z M44.03999999999999 12.32 l0 7.68 q-0.34 0.06 -0.74 0.09 t-0.82 0.03 t-0.83 -0.03 t-0.75 -0.09 l0 -6.62 q0 -1.16 -0.94 -1.16 l-0.3 0 q-0.12 -0.38 -0.12 -1.06 q0 -0.66 0.12 -1.12 q0.52 -0.04 0.96 -0.07 t0.8 -0.03 l0.44 0 q1.02 0 1.6 0.64 t0.58 1.74 z M40.53999999999999 6 q0.58 -0.32 1.5 -0.32 q0.94 0 1.46 0.32 q0.24 0.54 0.24 1.16 t-0.24 1.16 q-0.58 0.3 -1.52 0.3 t-1.44 -0.3 q-0.24 -0.54 -0.24 -1.16 t0.24 -1.16 z M46.85999999999999 20 l0 -7.8 l-1.72 0.02 q-0.12 -0.5 -0.12 -1.1 t0.12 -1.12 l1.56 0.02 q-0.1 -0.74 -0.1 -1.34 q0 -1.5 0.97 -2.49 t2.53 -0.99 t3.06 0.56 q0.02 0.52 -0.18 1.13 t-0.5 0.93 q-0.94 -0.28 -1.54 -0.28 q-1.34 0 -1.34 1.38 q0 0.58 0.08 1.12 l2.62 -0.04 q0.12 0.52 0.12 1.12 t-0.12 1.1 l-2.4 -0.04 l0 7.82 q-0.68 0.12 -1.5 0.12 t-1.54 -0.12 z M62.77999999999999 10.34 l-2.46 9.4 q-0.58 2.16 -1.54 3.32 q-1.1 1.32 -3.38 1.32 q-1.22 0 -2.42 -0.4 q-0.06 -0.54 0.12 -1.21 t0.5 -1.03 q0.9 0.3 1.8 0.3 q1.48 0 1.96 -1.62 l0.08 -0.28 q-1.74 0 -2.08 -1.26 l-2.32 -8.62 q0.92 -0.42 1.72 -0.42 t1.17 0.3 t0.55 1.04 l0.92 3.84 q0.14 0.54 0.46 2.64 q0.02 0.14 0.16 0.14 l1.74 -7.76 q0.48 -0.14 1.3 -0.14 q0.92 0 1.6 0.22 z"/>
              </g>
            </svg>